<mxfile host="app.diagrams.net" modified="2022-08-31T12:33:05.614Z" agent="5.0 (Macintosh)" etag="X9UAj4BZBdUMYib8DGJw" version="20.2.7" type="github">
  <diagram id="B0SlMsek6jtzEiFGTetp" name="Page-1">
    <mxGraphModel dx="946" dy="530" grid="1" gridSize="10" guides="1" tooltips="1" connect="1" arrows="1" fold="1" page="1" pageScale="1" pageWidth="850" pageHeight="1100" math="0" shadow="0">
      <root>
        <mxCell id="0" />
        <mxCell id="1" parent="0" />
        <mxCell id="Unap_gfNNR2s0oB9kgBv-1" value="" style="rounded=0;whiteSpace=wrap;html=1;dashed=1;fillColor=#f5f5f5;strokeColor=#666666;fontColor=#333333;" parent="1" vertex="1">
          <mxGeometry x="70" y="60" width="420" height="120" as="geometry" />
        </mxCell>
        <mxCell id="Unap_gfNNR2s0oB9kgBv-3" value="Key-Value Stores" style="text;html=1;strokeColor=none;fillColor=none;align=center;verticalAlign=middle;whiteSpace=wrap;rounded=0;" parent="1" vertex="1">
          <mxGeometry x="70" y="30" width="100" height="30" as="geometry" />
        </mxCell>
        <mxCell id="Unap_gfNNR2s0oB9kgBv-4" value="Redis" style="outlineConnect=0;dashed=0;verticalLabelPosition=bottom;verticalAlign=top;align=center;html=1;shape=mxgraph.aws3.redis;fillColor=#2E73B8;gradientColor=none;" parent="1" vertex="1">
          <mxGeometry x="316" y="82.63" width="60" height="63" as="geometry" />
        </mxCell>
        <mxCell id="Unap_gfNNR2s0oB9kgBv-5" value="AWS DynomoDB" style="outlineConnect=0;dashed=0;verticalLabelPosition=bottom;verticalAlign=top;align=center;html=1;shape=mxgraph.aws3.dynamo_db;fillColor=#2E73B8;gradientColor=none;" parent="1" vertex="1">
          <mxGeometry x="393" y="77" width="65" height="70.25" as="geometry" />
        </mxCell>
        <mxCell id="Unap_gfNNR2s0oB9kgBv-6" value="" style="rounded=0;whiteSpace=wrap;html=1;dashed=1;fillColor=#f5f5f5;strokeColor=#666666;fontColor=#333333;" parent="1" vertex="1">
          <mxGeometry x="70" y="240" width="450" height="120" as="geometry" />
        </mxCell>
        <mxCell id="Unap_gfNNR2s0oB9kgBv-7" value="Document Stores" style="text;html=1;strokeColor=none;fillColor=none;align=center;verticalAlign=middle;whiteSpace=wrap;rounded=0;" parent="1" vertex="1">
          <mxGeometry x="70" y="210" width="100" height="30" as="geometry" />
        </mxCell>
        <mxCell id="Unap_gfNNR2s0oB9kgBv-10" value="MongoDB" style="dashed=0;outlineConnect=0;html=1;align=center;labelPosition=center;verticalLabelPosition=bottom;verticalAlign=top;shape=mxgraph.webicons.mongodb;gradientColor=#DFDEDE" parent="1" vertex="1">
          <mxGeometry x="269" y="257.5" width="70" height="63" as="geometry" />
        </mxCell>
        <mxCell id="Unap_gfNNR2s0oB9kgBv-12" value="" style="rounded=0;whiteSpace=wrap;html=1;dashed=1;fillColor=#f5f5f5;strokeColor=#666666;fontColor=#333333;" parent="1" vertex="1">
          <mxGeometry x="70" y="410" width="420" height="120" as="geometry" />
        </mxCell>
        <mxCell id="Unap_gfNNR2s0oB9kgBv-13" value="Wide Column Databases" style="text;html=1;strokeColor=none;fillColor=none;align=center;verticalAlign=middle;whiteSpace=wrap;rounded=0;" parent="1" vertex="1">
          <mxGeometry x="70" y="380" width="140" height="30" as="geometry" />
        </mxCell>
        <mxCell id="Unap_gfNNR2s0oB9kgBv-16" value="" style="rounded=0;whiteSpace=wrap;html=1;dashed=1;fillColor=#f5f5f5;strokeColor=#666666;fontColor=#333333;" parent="1" vertex="1">
          <mxGeometry x="70" y="570" width="420" height="120" as="geometry" />
        </mxCell>
        <mxCell id="Unap_gfNNR2s0oB9kgBv-17" value="" style="shape=image;verticalLabelPosition=bottom;labelBackgroundColor=default;verticalAlign=top;aspect=fixed;imageAspect=0;image=https://phoenixnap.com/kb/wp-content/uploads/2021/04/key-value-database.png;" parent="1" vertex="1">
          <mxGeometry x="88.39" y="73.5" width="134.33" height="93" as="geometry" />
        </mxCell>
        <mxCell id="Unap_gfNNR2s0oB9kgBv-18" value="" style="shape=image;verticalLabelPosition=bottom;labelBackgroundColor=default;verticalAlign=top;aspect=fixed;imageAspect=0;image=https://lennilobel.files.wordpress.com/2015/07/i4.png;" parent="1" vertex="1">
          <mxGeometry x="82.39" y="257.5" width="167.61" height="74.13" as="geometry" />
        </mxCell>
        <mxCell id="Unap_gfNNR2s0oB9kgBv-20" value="" style="shape=image;verticalLabelPosition=bottom;labelBackgroundColor=default;verticalAlign=top;aspect=fixed;imageAspect=0;image=https://www.researchgate.net/profile/Michael-Mior/publication/264859776/figure/fig1/AS:668915290083333@1536493241409/Data-layout-in-wide-column-stores.png;" parent="1" vertex="1">
          <mxGeometry x="100" y="425" width="171.07" height="95" as="geometry" />
        </mxCell>
        <mxCell id="Unap_gfNNR2s0oB9kgBv-21" value="" style="shape=image;verticalLabelPosition=bottom;labelBackgroundColor=default;verticalAlign=top;aspect=fixed;imageAspect=0;image=https://www.educba.com/academy/wp-content/uploads/2019/07/Apache-HBase-1.png;" parent="1" vertex="1">
          <mxGeometry x="328.36" y="425" width="129.64" height="90" as="geometry" />
        </mxCell>
        <mxCell id="Unap_gfNNR2s0oB9kgBv-23" value="Couchbase" style="shape=image;verticalLabelPosition=bottom;labelBackgroundColor=default;verticalAlign=top;aspect=fixed;imageAspect=0;image=data:image/png,iVBORw0KGgoAAAANSUhEUgAAAOAAAADgCAMAAAAt85rTAAAAllBMVEX////tIibtHSHsDhT3srPtICTtGR75xcXtFhv++fn6z9DrBhDuLjLuMTX95+f//Pz83t7+8fH82NjvAAD+7O34AAD0aGv84+TuAAjuOz77zs/2o6TyGh/0QET1T1L2goT5ra71kZPwVVjxX2H2nZ77w8T0bG/xRkrzVFf3iov2EBb2BxD5mZv4u7z4qKr4gIL3LTHydXdsEakyAAAG4klEQVR4nO2cbXeiPBBASzAIiLxJURRQQRGpr///zz1o69Ml2C5iYHDP3E/bLnq4TUiYySRvbwiCIAiCIAiCIAiCIAiCIAiCIAiCIAiCIAiCIAiCIAiCIAiCIEhtDMVynPG0t0yiTZC688Xa1B1LMaDviw+K2Z9tk81pMvrIfN+XfD/7mExIEM93e9uCvrtnUczDMRREWSaUCn9CiSSLJEh201d2HO/igMpSUa1gKfvD9NiHvs96ONNklEnkR7svRyqJ70FPV6Bv91H0WSSLv7t942fe1oa+44dwevHk5555BzIIdi+k2AsF+QG7KxIJ5tD3XQ3Ddt8far0vKPkY7l9gSLV22sOtd4P45873UzXxSV2/vBXFsNft8bQXiDV65x9IwrbDhs48e6L5vhpxEqrQHj/hRINn9S7IpKOGqsvFL++mw14XAw0zrD16shBhAW1TZv343P4zdLSE9mExTxI/v5zRolu9VA19rn4CPXXK0Ik59s9PiNahMNFJOY2ffyL53Zkt5g345VHisCuv3r2sCT9BGByhzT5Rg6ffz+5DyQHa7YLjch9gbhBtDW2Xs3oyfvgN0YV/DO1TQx30Sgb/RhNxnuGLUN8B9uu9N+mXd9IE1k/fNNlBhcsr2x5UcCE0N8J8IieQ48w44htD3IGepoCCh0nTfpenEK4JnbDxBrxkoeCasN/gHP+NDDeQxuU5kBIiSbIsioOBWPkVjsj51aIsS5LELpRevlKECn31UeleZG2TRnFyPm6Xy60rV2tg4h3zq+fnsxtHoUdLCxsfMyDBJRsmEWG+N53v4oKKcf7gFrsbiqVPDxH7d5FSmCZUYmaIIR6zsLCvFAhTofi94zkzNlOg7IUdMH/pEZtj6FcSJBrzMYPJIFNp15ZTgRmz/j4pvfnXFHxzmBBaPkNMhcqx+ISRcgqlruDbrPhBEkIsG9rMLC+W171qC061QhNSCeIh7DMz1mBRvqSuoJkW/3gZwERhzJgqEbFXuqa2IPsS70ftP4TKtkFBtgXJSW/DqYDlMrMgV0H2LV5sf5Rhh3KugvaGEczaj+t1tgqtUUFx1YZTAZONdbkKst1Dbj+Lv25U0GMF4zacCiw+GhRUWUEStOFUYM7GSncFKc0j4E+kIl+/zS+QKghSsQ2nAqVo/p6gqGnDoecFm02Y5oFwHLtJ4rpxHEVpGG42gecNNU0Ylj5YEhRGbTgVKC3K3xG0+tPpVFVVO8c0zfFY1x3H0fXxOP/p8ktVzS/ol5NK6pAVfG/DqcCQTajdEaxNJwTZW/jXBDcVumhtuiBYZZCpTVmw/UHmWGGaqE1JkA74fXlFqkz0tSkJAkz0azbr26ig1P6rWpWX7dqUBAFetnU2w96oIEC4VCXgrU1JECDgtdjEfbMt2H5hnjJnVlYGHAWZvChI0slYMVm1wY7fGhC7suqnALn7PpOUkTxuNTsKW5+ZtT/G3EkMjbjVBtpMD6U+ROpeOTMPIRE4JS8Vtn6RbED2bK18ZiaUN1zqIawzm8qBWT4rL4AK0iSa2Xr9DfKK5Zj7MxXZ8imgBVClXOZE5clAi46r3ro/VW1zrDuOZSmKcd/YUBTFshxdN21b7ff3h63ryaNyaQo9AdXFsssvn3dzqQkZiHTobdI4TpLzeT7fbpfL3Wq1mn2R/3O3vBRWzI/nc3KprQiGwvVjd7eOSinQjjvz51LKa7ZQulTM3PgjVfiZQWT+o1wf8z9wVbEPFsPSb64/Vv1cBrZlct1OKVf7seANp+ly2CsjuD0+xqqFcko/BqyIHafNF8QKoJu0Dr8MfnyQE9C6+3HjTyHlGGbWYdbwtgLZhfW7k8LnCp20H8ozTBvdWDDZQvu9GctGdkd+IkfQO3tydP77d28QqDCiSL+0FMQJ6sPEgSUWpeJ0PkBuCSmSVD6e6hEIBR9Bb+hhA4Ykg9y0xFCqDuTgB7yvjkH1OBtSYdalox7y+Z7wHUpHu66dfLQfcWxDOurgGWtqwO/AnBPEWsRfmfIaS4l26Nbzd8PkcyiJRNbd9Mvnw2Ty/LFj4qnDp+MZh2HFPYM/QcixAwHEL/TDZwyprM26Nj2wmEuh9nxBs6RD5xz9hLEOJn87+Pa+nkhWXW++Lw4b6eETRomsHV9EL2e8TMWHxlMqeq91WLNhHrzqp/xS0d/ar9N8X+izcCL+/WGkRB4NX1DvyngbatIvR21fjksXgqQTmaWaWPvlORQGpZPgr3KiFLjbhQl9j89i2dOV68lZdj3L4XYSRCZq0XJtO6/ZNVkMyzH7vdX27MZpGrvJfLfI3ax/Qw5BEARBEARBEARBEARBEARBEARBEARBEARBEARBEARBEARBEASI/wBRTHyQ+D1fsAAAAABJRU5ErkJggg==;" parent="1" vertex="1">
          <mxGeometry x="458" y="261.28999999999996" width="55.43" height="55.43" as="geometry" />
        </mxCell>
        <mxCell id="Unap_gfNNR2s0oB9kgBv-25" value="" style="shape=image;verticalLabelPosition=bottom;labelBackgroundColor=default;verticalAlign=top;aspect=fixed;imageAspect=0;image=https://d2axcg2cspgbkk.cloudfront.net/wp-content/uploads/GraphDatabase.jpg;" parent="1" vertex="1">
          <mxGeometry x="205.98" y="590" width="148.04" height="80" as="geometry" />
        </mxCell>
        <mxCell id="Unap_gfNNR2s0oB9kgBv-26" value="Graph Database" style="text;html=1;strokeColor=none;fillColor=none;align=center;verticalAlign=middle;whiteSpace=wrap;rounded=0;" parent="1" vertex="1">
          <mxGeometry x="50" y="540" width="140" height="30" as="geometry" />
        </mxCell>
        <mxCell id="Q_T1hnttb5ArmMFt2DoH-2" value="" style="shape=image;imageAspect=0;aspect=fixed;verticalLabelPosition=bottom;verticalAlign=top;image=data:image/png,iVBORw0KGgoAAAANSUhEUgAAASoAAADGCAYAAABly81iAAAMbGlDQ1BJQ0MgUHJvZmlsZQAASImVVwdYU8kWnltSSWgBBKSE3gTpBJASQgsgvQg2QhJIKDEmBBU7uqjg2kUUK7oqothWQOzYlUWx98WCirIu6mJD5U1IQNd95Xvn++beP2fO/Kfcmdx7AND6wJNK81FtAAokhbLEiBDmqPQMJqkDaAAy0AYo0Obx5VJ2fHwMgDJw/7u8uwEQ5f2qs5Lrn/P/VXQFQjkfAGQMxFkCOb8A4uMA4Gv5UlkhAESl3mpSoVSJZ0GsJ4MBQrxCiXNUeLsSZ6nw4X6b5EQOxJcBINN4PFkOAJr3oJ5ZxM+BPJqfIXaVCMQSALSGQRzIF/EEECtjH1ZQMEGJKyG2h/ZSiGE8gJX1HWfO3/izBvl5vJxBrMqrX8ihYrk0nzfl/yzN/5aCfMWAD1s4aCJZZKIyf1jDW3kTopWYBnGXJCs2TllriD+IBaq6A4BSRYrIFJU9asKXc2D9gAHErgJeaDTEJhCHS/JjY9T6rGxxOBdiuFvQyeJCbjLEhhDPF8rDktQ2G2UTEtW+0PpsGYet1p/jyfr9Kn09UOSlsNX8b0RCrpof0ywWJadBTIXYukicGguxJsQu8rykaLXNiGIRJ3bARqZIVMZvDXGiUBIRouLHirJl4Ylq+7IC+UC+2EaRmBurxvsKRcmRqvpgp/i8/vhhLthloYSdMsAjlI+KGchFIAwNU+WOPRdKUpLUPB+khSGJqrU4VZofr7bHLYX5EUq9JcSe8qIk9Vo8tRBuThU/ni0tjE9WxYkX5/Ki4lXx4EtADOCAUMAECjiywASQC8StXQ1d8JdqJhzwgAzkACFwVmsGVqT1z0jgNQkUgz8gEgL54LqQ/lkhKIL6L4Na1dUZZPfPFvWvyANPIS4A0SAf/lb0r5IMeksFT6BG/A/vPDj4MN58OJTz/14/oP2mYUNNjFqjGPDI1BqwJIYRQ4mRxHCiA26MB+L+eAy8BsPhjrNw34E8vtkTnhLaCI8I1wnthNvjxSWyH6IcCdohf7i6Flnf1wK3hZxeeAgeANkhM26AGwNn3BP6YeNB0LMX1HLUcSurwvyB+28ZfPc01HYUVwpKGUIJptj/uFLTUdNrkEVZ6+/ro4o1a7DenMGZH/1zvqu+AN6jf7TE5mP7sbPYCew8dhhrAEzsGNaItWBHlHhwdz3p310D3hL748mDPOJ/+OOpfSorKXetde10/ayaKxROLlQePM4E6RSZOEdUyGTDt4OQyZXwXYYx3V3d3QBQvmtUf19vE/rfIYhByzfdnN8BCDjW19d36Jsu6hgAe33g8T/4TWfPAkBHA4BzB/kKWZFKhysvBPgvoQVPmhEwA1bAHubjDryBPwgGYSAKxIFkkA7GwSqL4D6XgUlgGpgNSkE5WAJWgjVgA9gMtoNdYB9oAIfBCXAGXASXwXVwF+6eDvASdIN3oBdBEBJCRxiIEWKO2CBOiDvCQgKRMCQGSUTSkUwkB5EgCmQaMgcpR5Yha5BNSA2yFzmInEDOI23IbeQh0om8QT6hGEpD9VBT1BYdjrJQNhqNJqNj0Rx0IlqMzkUXoZVoNboTrUdPoBfR62g7+hLtwQCmgRlgFpgzxsI4WByWgWVjMmwGVoZVYNVYHdYEn/NVrB3rwj7iRJyBM3FnuIMj8RScj0/EZ+AL8TX4drweP4VfxR/i3fhXAp1gQnAi+BG4hFGEHMIkQimhgrCVcIBwGp6lDsI7IpFoQLQj+sCzmE7MJU4lLiSuI+4mHie2ER8Te0gkkhHJiRRAiiPxSIWkUtJq0k7SMdIVUgfpA1mDbE52J4eTM8gScgm5gryDfJR8hfyM3EvRpthQ/ChxFAFlCmUxZQuliXKJ0kHppepQ7agB1GRqLnU2tZJaRz1NvUd9q6GhYanhq5GgIdaYpVGpsUfjnMZDjY80XZojjUMbQ1PQFtG20Y7TbtPe0ul0W3owPYNeSF9Er6GfpD+gf9BkaLpocjUFmjM1qzTrNa9ovtKiaNlosbXGaRVrVWjt17qk1aVN0bbV5mjztGdoV2kf1L6p3aPD0HHTidMp0Fmos0PnvM5zXZKurW6YrkB3ru5m3ZO6jxkYw4rBYfAZcxhbGKcZHXpEPTs9rl6uXrneLr1WvW59XX1P/VT9yfpV+kf02w0wA1sDrkG+wWKDfQY3DD4NMR3CHiIcsmBI3ZArQ94bDjUMNhQalhnuNrxu+MmIaRRmlGe01KjB6L4xbuxonGA8yXi98WnjrqF6Q/2H8oeWDd039I4JauJokmgy1WSzSYtJj6mZaYSp1HS16UnTLjMDs2CzXLMVZkfNOs0Z5oHmYvMV5sfMXzD1mWxmPrOSeYrZbWFiEWmhsNhk0WrRa2lnmWJZYrnb8r4V1YpllW21wqrZqtva3Hqk9TTrWus7NhQblo3IZpXNWZv3tna2abbzbBtsn9sZ2nHtiu1q7e7Z0+2D7CfaV9tfcyA6sBzyHNY5XHZEHb0cRY5VjpecUCdvJ7HTOqe2YYRhvsMkw6qH3XSmObOdi5xrnR+6GLjEuJS4NLi8Gm49PGP40uFnh3919XLNd93ietdN1y3KrcStye2Nu6M7373K/ZoH3SPcY6ZHo8drTydPoed6z1teDK+RXvO8mr2+ePt4y7zrvDt9rH0yfdb63GTpseJZC1nnfAm+Ib4zfQ/7fvTz9iv02+f3p7+zf57/Dv/nI+xGCEdsGfE4wDKAF7ApoD2QGZgZuDGwPcgiiBdUHfQo2CpYELw1+BnbgZ3L3sl+FeIaIgs5EPKe48eZzjkeioVGhJaFtobphqWErQl7EG4ZnhNeG94d4RUxNeJ4JCEyOnJp5E2uKZfPreF2R/lETY86FU2LTopeE/0oxjFGFtM0Eh0ZNXL5yHuxNrGS2IY4EMeNWx53P94ufmL8oQRiQnxCVcLTRLfEaYlnkxhJ45N2JL1LDklenHw3xT5FkdKcqpU6JrUm9X1aaNqytPZRw0dNH3Ux3ThdnN6YQcpIzdia0TM6bPTK0R1jvMaUjrkx1m7s5LHnxxmPyx93ZLzWeN74/ZmEzLTMHZmfeXG8al5PFjdrbVY3n8NfxX8pCBasEHQKA4TLhM+yA7KXZT/PCchZntMpChJViLrEHPEa8evcyNwNue/z4vK25fXlp+XvLiAXZBYclOhK8iSnJphNmDyhTeokLZW2T/SbuHJityxatlWOyMfKGwv14Ed9i8Je8ZPiYVFgUVXRh0mpk/ZP1pksmdwyxXHKginPisOLf5mKT+VPbZ5mMW32tIfT2dM3zUBmZM1onmk1c+7MjlkRs7bPps7Om/1biWvJspK/5qTNaZprOnfW3Mc/RfxUW6pZKiu9Oc9/3ob5+Hzx/NYFHgtWL/haJii7UO5aXlH+eSF/4YWf3X6u/LlvUfai1sXei9cvIS6RLLmxNGjp9mU6y4qXPV4+cnn9CuaKshV/rRy/8nyFZ8WGVdRVilXtlTGVjautVy9Z/XmNaM31qpCq3WtN1i5Y+36dYN2V9cHr6zaYbijf8GmjeOOtTRGb6qttqys2EzcXbX66JXXL2V9Yv9RsNd5avvXLNsm29u2J20/V+NTU7DDZsbgWrVXUdu4cs/PyrtBdjXXOdZt2G+wu3wP2KPa82Ju598a+6H3N+1n76361+XXtAcaBsnqkfkp9d4Ooob0xvbHtYNTB5ib/pgOHXA5tO2xxuOqI/pHFR6lH5x7tO1Z8rOe49HjXiZwTj5vHN989OerktVMJp1pPR58+dyb8zMmz7LPHzgWcO3ze7/zBC6wLDRe9L9a3eLUc+M3rtwOt3q31l3wuNV72vdzUNqLt6JWgKyeuhl49c4177eL12OttN1Ju3Lo55mb7LcGt57fzb7++U3Sn9+6se4R7Zfe171c8MHlQ/bvD77vbvduPPAx92PIo6dHdx/zHL5/In3zumPuU/rTimfmzmufuzw93hndefjH6RcdL6cvertI/dP5Y+8r+1a9/Bv/Z0j2qu+O17HXfm4Vvjd5u+8vzr+ae+J4H7wre9b4v+2D0YftH1sezn9I+Peud9Jn0ufKLw5emr9Ff7/UV9PVJeTJe/6cABgeanQ3Am20A0NMBYMC+jTpa1Qv2C6LqX/sR+E9Y1S/2izcAdfD7PaELft3cBGDPFth+QX4t2KvG0wFI9gWoh8fgUIs828NdxUWDfQrhQV/fW9izkZYD8GVJX19vdV/fl80wWNg7HpeoelClEGHPsDH2S1ZBFvg3oupPv8vxxztQRuAJfrz/CwY7kKHIXSViAAAAimVYSWZNTQAqAAAACAAEARoABQAAAAEAAAA+ARsABQAAAAEAAABGASgAAwAAAAEAAgAAh2kABAAAAAEAAABOAAAAAAAAAJAAAAABAAAAkAAAAAEAA5KGAAcAAAASAAAAeKACAAQAAAABAAABKqADAAQAAAABAAAAxgAAAABBU0NJSQAAAFNjcmVlbnNob3S6dlVPAAAACXBIWXMAABYlAAAWJQFJUiTwAAAB1mlUWHRYTUw6Y29tLmFkb2JlLnhtcAAAAAAAPHg6eG1wbWV0YSB4bWxuczp4PSJhZG9iZTpuczptZXRhLyIgeDp4bXB0az0iWE1QIENvcmUgNi4wLjAiPgogICA8cmRmOlJERiB4bWxuczpyZGY9Imh0dHA6Ly93d3cudzMub3JnLzE5OTkvMDIvMjItcmRmLXN5bnRheC1ucyMiPgogICAgICA8cmRmOkRlc2NyaXB0aW9uIHJkZjphYm91dD0iIgogICAgICAgICAgICB4bWxuczpleGlmPSJodHRwOi8vbnMuYWRvYmUuY29tL2V4aWYvMS4wLyI+CiAgICAgICAgIDxleGlmOlBpeGVsWURpbWVuc2lvbj4xOTg8L2V4aWY6UGl4ZWxZRGltZW5zaW9uPgogICAgICAgICA8ZXhpZjpQaXhlbFhEaW1lbnNpb24+Mjk4PC9leGlmOlBpeGVsWERpbWVuc2lvbj4KICAgICAgICAgPGV4aWY6VXNlckNvbW1lbnQ+U2NyZWVuc2hvdDwvZXhpZjpVc2VyQ29tbWVudD4KICAgICAgPC9yZGY6RGVzY3JpcHRpb24+CiAgIDwvcmRmOlJERj4KPC94OnhtcG1ldGE+CsRpuzMAAAAcaURPVAAAAAIAAAAAAAAAYwAAACgAAABjAAAAYwAAK6QHxZH7AAArcElEQVR4Aex9Taxu2VHd9567kRMJJzbMgAiQQuS2sN2vwTaZwSgZxzgDTOzIbQQeBQbJLGAYhUiQSWx+jPixyQCTjDLIIFJmsSOFdoyEIxAhSNhDQAEpQrzOu6lVtVftVXvv8917v/fc791++3S/U6uqVu06p/Y++9vn3PPde+/KttNig/Ge2s1wZQbaEHWvKcGVCEKXV6cri2JcNEmCJqh4Yphh59/15zja4+/5uv7ucaKaphMdCXUOcW3iFw6nGcrmpEppUxgvvam9nb+PxFLbUKZ6FQ7rStmcVCl3/a0wMfVN9dzj75kaf/euHlmP8GNqGM9QseC615ZOOb4bT8XkGwyD6qFuWzjUtPPv+u/xx8mU06peeYH1mukXV+dNfnO5beFQ07Ny/eWKan265ZCNcmZGy5pETO71fo2cw08rzQey6opbQwsTY8Jl+51/6jb79Dn4tBwLqrriXX+vwKIke/xFUXL/hK4/n6h01oxCoxvapOQZM633D6erbq0WJ+kOREw6fKilPnhk1bbze7GsKrv+Pkx8kPnOP7Zgq6MtfM4tH2xh8b2X1HZ7/ElROrwL11+sqLyvo8MT4jw4Ivo5HSLEYfOQooRd95M7k96LoTYRNHqNS0hRZv7khuGe73Z+lgJl2/2PKtxoK2OqKHP45Pah57s9/qxcfimibDL+7tkjKizOZIuChUFK2szqBSf0AydbNfeVZe8/+2Mr0yPMbDFCwcNmR3iQIswHzgj22J1/13+PP17p7Xqxi0pHRVwu9EEDxvb0rz9bUT2yo5GVDM8ljtD3euhivjEs8XLu0UB4fV+IvfkDcydcg0o8FGx5nuH1fSEGDfsDcydcg0o8FGw7f9ShVddrVArV3CYOzJ1wDSrxULDt+kcd7kr9bUEVXVd6s50DBR++Gmf1bIy0lezNrmZviehEMTa489uFZVfWrv8efzYMco6dr5TJ0i+ru339LW79dHIAXpelF2CqTXwE0rwMb9HnLjyfnHb+Xf/lADq/ysLw4rYM3+PPx9Uduv7y1s/7tfUf+xiymnoH+/xVnRIWDropk1AMoggkt5qaRiMlySnDQTfl4G6qeAWSW01No5GS5JThoJtycDdVvALJraam0UhJcspw0E05uJsqXoHkVlPTaKQkOWU46KYc3E0Vr0Byq6lpNFKSnDIcdFMO7qaKVyC51dQ0GilJThkOuikHd1PFK5DcamoajZQkpwwH3ZSDu6niFUhuNTWNRkqSU4aDbsrB3VTxCiSXpr6iooWSzIUMyjFx9oyWricioFzkpSkox8TZM1q6noiAkskWMijHxNkzWrqeiIBykZemoBwTZ89o6XoiAkomW8igHBNnz2jpeiICykVemoJyTJw9o6XriQgomWwhg3JMnD2jpeuJCCgXeWkKyjFx9oyWricioGSyhQzKMXH2jJauJyKgHPLG6wnFSCYkNqydDfPhFN1hlRtDOigRO2/pdZCaEGmDxLbz7/rbWNjjLy8FXnS8UuI6oUYZ1nGfXgepCY02SGzPxvXXvkLDg4tDW+3XDFopa2R/kWx4kGd0jru4t1zHa2trBq2UGmE57DlXfP1i5y8/hrZy7frHJbjHn10z7R3CevVU7eAKQ7D9O/A+wevPV1QlTSoJ6hEvNDLzh3NmKC8Bk7CIham4U0lwENXNZO78UXfWISvEAqWhguJOJUElLzQymZcyqSSkoYLiTiVBJS80MpmXMqkkpKGC4k4lQSUvNDKZlzKpJKShguJOJUElLzQymZcyqSSkoYLiTiVBJS80MpmXMqkkpKGC4k4lgZOnW79wV1KxTUdRk85ab8uR7fLTfCa3SavHgBJas+38w6fAoojF1GvpyHa7/rEOKGVqSlSr1wzmYtvj7+mMv3yPyjtKOihhgpGR3211RqU5t+/OOjtN11YZkmDntwpoNXjNuE0dUtGAZ53CFl7CBM5TbedvK1irzPm7J62alHuCwkuY4Lmu/8GKKipYSzRWNbznOT1mZLu+CFaT4t4SUXjPc8jlBd7ZjrqaRDUpTkKC8J7nJLl+KpvZ4xbBalLcWyIK73kOufv8x2q5viiemhT3ShKF9zyH3F3/sVquL4qnJsU5UamxlxeID6KFkTBBDSmf+4MrfTW2ahqz88eDcKlQwgRaMMNHdtDoo4zQqoWNnp0f3xKUCiVMoAUzfGQHjT7KCK1a2OjZ9bf687t+WZqsWIJ0jaAyOKE0VnGa0h6M8Haht1WIvR+zQztzRDVy5x9/sscfY3tRd/39wdQef+MjpnoV9ctusI8Xn+mV8fW9/nJFdZx2OAA94Hqk6RnN1EPqPkPOnPbOXyag45Klh/WmgbpWnjZydv/XivRR11GvVUM1JN2jmXpI3WeIAbLC1rN2pGzHNSTdo5l6SN1niAGywtazdqRsxzUk3aOZekjdZ4gBssLWszaEh+n8lOnOGqdNOy5tmuK6vU9R7EgIn9nxqsWZbeePT7ldf5mSZSwFlL34YozZ4Gpf2q5jzYh7/L05rr+YphazSBkM8KuBsxwGyBgrl1uGJGjNiD6GU58oatj5/ZLWkrBu1k95uac/wa6/l0LqkXUbwERRwx5/b/T4m279ane0eUiN3p9icBg69tj63NV5RJTB1H141J84AflicBg69th2/qiDfriwYpRkdNlryPolNwHZYnAYOvbYGL/z9zoRUUaldB8e9SdOQL4YHIaOPbY3Y/19osrTThAnnC9KmZquBI1DMdqXOo1NViFJdn6vAO+JTWHlOmDhWSuTfYRKgPrZSi08rVPbO7/VNIp6WCN2QxK03nSadD9JTVax6DMj7PxexL6ikkEp5c2xyxKrj7j7OqKP0j2TWww7fw5K1gySFaJUH3H3dUQfpXsmtxh2/Xf9y/feYuRwhFByPKnsvo7UD+yeyS2Ga8Zfn6i0ZYl386gnd3bMliR3YKT6O8y7y9HYyKgnfXbMliR3YKSdP59k9boQjUUcdfJyGk3DwtJ9iXb99/grf0MhR0aAcbyZXicqH0BmZNzBLEe3jspoe8hA1SV2mFnx8pYBS0K3O8JZf0iz8y8/5bVe7Kyo5VBRqi6x2/Xf4+9uXn8xUXFA5xUwTiJCECj0yyDbopRWqkk0gUK/DLItSmmlmkQTKPTLINuilFaqSTSBQr8Msi1KaaWaRBMo9Msg26KUVqpJNIFCvwyyLUpppZpEEyj0yyDbopRWqkk0gUK/DLItSmmlmkQTKPTLINuilFaqyT5e1q8nVJrHL0zdLs6ECXLl1C3jRChH2ButRg1Wj9vFmTDBzm/1wiq5V6RiLWdgZTbvwuQet4szYYLM2y07v9Zi13+swFwdm6jiL/vxOdpM6YNKfcSUY6quK0MxGfZOir2Ut/NHPdYVOp5oVnxWdm5xxd713+PvDlx/fUXVBrELHdBqx9BXX70kbqJltIH60rDmSVbPl6YEN0k3cTLawM4fE2AUqVXGRVZp15/jPUuSYBpbNzFktIE9/m4+/g5u/RbT0VBYfc4dxc8u6MFukjelsyeFm7YKJoYZtGN3fuvk9lOPqJVUjNDlrv/8800WqI451SaGGfb46xPLG3395UQ1DWc9Eu3Bhid+4bCbKTMozjTNCexzaxhOO3+fiUptQ5nqVTisK+Wuv1eA5aDkasmcUz33+Humxl/74w5llEv3WQdah8UfSEBn9hm1Rix8A3lQPdxtC4eadv5d/z3+Yums18Xzdv3liipOfCyF6opbmRYmTlnhsr2ul1ndw0+rsUHVFe/8XoFFSXb9oyi53+NvXl3cwevPJypdtcRAx2WgD0Cy2/36aJ62wtKrRbFTYwcz2HyoIi73yKpt5/diWVnuXv2v/uLLftyv/8Xveg9fmcQNvX9ntPX//b/1bn/hF/a3vO27T/ff9u6yat/9f3f7P/qOs4MPgdg9ges/VlRoqL0unhApFjkj87wv5S3KNVy4M2n7ha/XxM8tDsP7mvjJvfNf1P+P/tImJFuxvP7Vz50e+iTVhgxWMejU+/aPKxoWvXU3/PdtgHEie/Hv/JBzX/jWD8dQRCfv8Ycq3Ghjeb1kRZnDJzcMz/j13/+ke56PH3XT5JSaWb0ghX7gZJvmrt+tYyvTI8xsMULBw2blP0gR5gNnBHvszo8pgVd+q5cVVa1RLvqgAWOr9T/ZSumvbXL6f1gxGeXe4jtRyJTRBh4ZJyYmtOdBdm1cnR7ZROYLbezQmPle/NYfbvLDINtW86NtbojI32ceCl1dmn33v/Y0C3VZ/z+N+ttYeWRHLSsZPYrW1Tyt3vO3QyUeCrbME17fF2LQsD8wd8I1qMRDwbbzRx1adb1GpVDNbYLm17/2udNf/8nn0oFR4ysis6CcPs84aIYmHnXVP7g9xic3cwz5fb6C2TY09cK3/fDphW/5od5d7rndjsfvUVCw7f6POgz173VpbhOlft18Y1TiL61/vvBZWhuOIT42/Yi5kh8Yh2pvdjV7S1gnirHBnd8uLLuyrEZPo/4P/+Szp4df+80hf5uRst+aji4TGL1+32Ifna7u2+oJfG4t1ulsh7JxwmerLJuwXvyWDz+V82/LxuH8eRLnZT+dPf51TTdVrRdqcqH+i1u/xvPJARhDZd7OtetTMEOW4S3axOGFt/O30i8LeP5TDuXltgy/Wf3xDOqvvvIvvCU0w2aBuUpSexJabr/VtJmpZRPJ/OazCTgP0QAnMvyAJxzhxR4P3vHvRXuOxTZbqirg5JaN0wDJ/Hv83ZXrL2/9vBsXvV9NvYPzU/PMQGAsZQ6VYhBFILnV1DQaKUlOGQ66KQd3U8UrkNxqahqNlCSnDAfdlIO7qeIVSG41NY1GSpJThoNuysHdVPEKfPjV3zy9/rXP2jMk/ajCZ+J9+4BrRuFn2wbwzArfn8MUhedSnNSiJQvC1WGLrFipNB0NlPbw7ArPsOb8uBV88dvs+VXhowFu4aCbkt4aJ16B5FZT02ikJDllOOimHNxNFa9AcqupaTRSkpwyHHRTDu6milcgudXUNBopSU4ZDropB3dTxSuQXJr6iooWSjIXMijHxNkzWrqeiIBykZemoBwTZ89o6XoiAkomW8igHBNnz2jpeiICykVemoJyTJw9o6XriRp49H9+127z7EG5ybjbxIonVkVTfqyGHpmXy6BG8Kb4AQZFZwZ3tmRo98qmMsTDhMmLs5rp1+V/67v+9en+N74bCcrG1rtxtHQ9EQFlD55QUI6Js2e0dD0RAeWUtRuCckycPaOl64kIKHu6CQXlmDh7RkvXExFQDlnj9YRiJBMSG0acYa4R6Q6re8Hqg1EI4Sj79DpITTi0QWLb+d+o+j+0B+VYRfnDbp85juuPXvE5Bd3E1RH7yqT3GrsSzbSt0huhdTFS+mos20HQuv+Z/2+8ZJOVvY+1xx+LTdkKPoj0OkhNWLRBYlvXHx4ygbtWreHr+/Q6SK0TslX4sEX+9hWaVUDQuF8zaKUkO2R/kRSfyDF43WN0zntxXOt4bW3NoJVSIyyH3aLE1y92/uvq//Cr/+708KufbeOiDU4OUivrXGFOFTqQY/WFXkD/4gfKqD9WZI8g0QjatH7xZ1PehHHsfSusrDyLN+e74Hpm9/jRoIXYPNjgPXtmZbeC/koDfSF3/795xr+vqMogTCVB7f2FRqY/urDxQ5lUEtJQQXGnkqCSFxqZzEuZVBLSUEFxp5KgkhcamcxLmVQS0lBBcaeSoJIXGpnMS5lUEtJQAd6JwkubbU5ot1w9iNOGzxQwYzPJWzN/R8n0+L1O9tM9m6XsB3xsziaouD30Ozw0Zlu2aTgztbaj3bR27hCk+b/BfiL4gv1zm4VC5tabSpOC4k4lgVKXmEzWnTLJJKShguJOJUElLzQymZcyqSSkoYLiTiVBJS80MpmXMqkkpKGC4k4lgZOnW79wV1KxTUdRk85ab8uR7XI1NZPboO0xoITWbDv/cBUuilhMvZaObKf1x+0enkn5Zle3r0Jy6rCr3WYXn4DsRs/XRlJ/TgoRC2pfuSJXzDCr/LG+83mnu/28Hif/N9hD9hemlVVP4Mh2ev5+7LILdo+Bq9jk/CXsDOxtObLdzh9DY1W0UutGiLphZOQWNFcTJqhm09hnzqi0bDHAWadwhZcwgfNU2/n92o4LSQsjFT1Xf3/94Pf+ebJxi4YpxLfWHm1cDTENWP4TOQM+7aAz2t1bxgP40qY9ITeut4MrFV+vwdYEIHMBux18A9G+mTwXbPFvlf9vvv8/eXjd8airddaElzCB01Xb48/6gX2ihZkKe9YpbOElDHCwoorY5EpTHYb3POeY7XGLYDUp7i0Rhfc8h1yO+8521NUkqklxEhKE9zwnye2662xHXU2imhQnIUF4z3OSvMz/V1/4B37xJ8sa8097zATAJmJSiOkCPOjuw4yDacSE3+a1mAwCz7dYPcVUFRiR+MevAgYvjI+T/63v/Fl/zyrbE9CO1ix+BnGYYRRWP2cYF27hji2KawFHtuuLBGpSPDcZ3vOcHjWyXV8Eq0lxb4kovOc55LKWne2oq0lUk+KcqNSYUQ64nBdGwgQ15GwXM4YyQqumze38/fKOi6yX96hqR3bUNXx4cI4H6NRZZeicc6IX4GlvQ/ksEiF4SG6PyO0TFZOVRfjyAhGItmnJP2obdhtb5dngOLgEi4kQt5aX5n/rS/9KJqnrz5/nbQl9O45gZYSRMAGbuba1nrfGVk2b2/l9xPC7flmarFiCdI2gMljQxipOU9og53K5t1WIvR/bBdV5M6qRO39MAdfX/3V7mfPh137DiJw8KM3EyYj3eo2FVlFv3db1b22J06chtGtLL/smjWe1F7CsKealNNMF+d/6ElZS323HF1OdH6Pk9yPf48/LfVevv1xRxTDEgImtX/Yd0ZeyDIa0TlMMaSF132N2flYpatKr3pFWy3ENSfdoph7y6vR/v/gP20UNCzeyQo+sWPHYT/F8AmiTicwpfS4LI116xLBhSrL32bH+con2os3Hy/+Cvez5gr2hjq/V6FbPpI+ssOv+OKqfQ0fKdjwmaoTRTF0z09bbrJaetaPOPUh0YGbLdzq/PUv3x+nxUEw+k3h2dvLTCYrPva7bkCx2VM0M/IRsRVwJzvKlS6StgLIX385vxfB63Kz+D/G7o/AqgmxRf0we8ZM9n3DMGLd30SuYaPCR7OsgXx21vN7HcGl+tACmbd7/3qJFx6G6XXa3zf/CN77nhN9fFW+l3+78JW3CPf7Yfc/w9R/TVPZZBzEuu94GahjalDJx4JXpJv0J2kUlumQocKKoYef3IaUlyeId198nKXsdob/9nUEO+kSClzNtJXWPz5Dg1mSRwx+Gg8LNKJzuPJIhnAnAA8eWYjj+cTvK/xZfMdmTsre9x34rKL6Y3G7z2H5p6Pj8neYxy8DSSjndHtg4LceymZ0/p7usT4KLr//p1k+a7H2lxrHT3BcE7LH1IdgDiSiDqfvwqD9xAvLF4DB07LHt/FEHnVxYMfyyu6iP7du9GyYXcDExYXntk4y5Yb2PFZFPNCZs1WQDBkzMNt4OnjmhHWhtDRXte/PtojXcaN6mqQi6Uf634Lt8PHiPw04MDkPHHlu0D9R5RJTw1i086k+cgBFicBg69th2/qjDk6y/T1RZ9gQtkXwSpisBD4Zck72H9BiD4HEMbrKKRYwRcEthGyM7iGZzn4RmWeo0NlmFJGEbRtj5vRis3K6/lUPHeRsqU12yYBxLiKOxySr2+GN5sqZmaNdfX1HJpEQeJGMp1UfcfR3RR+meyS2GnT87hTWDZIUo1UfcfR3RR+meyS2GXf9d/zYpcMxAcoRQqo+4+zqij9I9k1sM14y/PlGxRUiJd/OoJ3d2zJYkd2Ck+jusu8vR2MioJ312zJYkd2CknT+fJPS6EI1FHHXypoEyD52kKtj13+OvPS7QYZF4HG+m14nKB5AZGXEwy9Gt4zTaHjJQdYkdBjKecxiwJHS7I5zWgTv/rn8bEXv82cWQoyEvkwRyAQUUQ7ue/GJ2M3Z39/qLiWo4Pz1HPzudUhbc4FywZ1uU0kQ1iSZQ6JdBtkUprVSTaAKFfhlkW5TSSjWJJlDol0G2RSmtVJNoAoV+GWRblNJKNYkmUOiXQbZFKa1Uk2gChX4ZZFuU0ko1iSZQ6JdBtkUprVSTaAKFfhlkW5TSSjXZ8mb9ekKlefzC1O3iTJggp7luWaym5CCXXg1WrtvFmTDBc5//Fz/za/2DtdXOV64oUdvwuc2KtZ/VuZ5+c+KnfmCR6z5r6J69ZR7W3gh+kkhbb7evlo/yf8+D954ePHiPNTSsJNiIJ5Wd28WZMIEdR7RGiWjF0lqDC+/C5GS3izNhgszVLTu/1uIm9beJ6pHNVRhsQV81QBslmMSUczJalKG4+3f+r1/9f+e1L51+7BM/EcXGPTdmCN/YFzahmI2/P4qvIIASTLx2YFOOKX4nFsFD/4OJ9voGLf6On7+YEI5b5H/11Y+cfuTVj3pcP1Ie0x5/q5pEkcc9mbArJi/6/5m//vuKqp2ECz0htR+dLE/6epktG/BP1QzRPMkyr9pBVl8G3xhktIHnIf8v2WrqM7/y63GyVjucP1/GxPljgoIxPKZ4gXzXZoXA+GperKji7XXMYpi4sHkTLSS0Njm1toMQCmi3yf/qq//k9CMf+6ftuJAtE0G59ZbRBp6H/h8LdFfP/+DWbzEcho7V55xx8lmCHuwmXAK2YigVE26xd2VimEEH1s5vU0IratRKKkZo8pd+5VdPv/yZ36j1t5WN/9bNXu5E0WRbRaXVcllbj2xW85dDDccqGImiu+8bAbZuMNTe8pz6/5b5fXX1sY/u/rfytgrH6lbKHS/tFkN0DPrFohjXO6hawt736NnCQJ+bgbY3+vrLiWo6HT2SfvyJJn56AHialM1JlTJ5iBjKufPbqOCwKMV1ZapXobDAV6cftdu+1177HzHAzOy/mjzvxsgb6o+07fed+9wD2rAh/307PnTTvKEv42vIHNp+Jo+R/9Of+vnTK/b8ittNz5/5PY6nS7nHn5UlxthUz2fs+mt/3IHdHzL70VR8pQJfTsWmdjfIbvINhkH1SLctHGra+R+v/u/7wPdbrfloWyvb+rOZYq0ERYasdTv+QINPSMA2a6EljAYPc5t3pet+SwcVBJsM8VXBmMgeP//Lr7z39Ol/+/PedGSs+3pm5hsMg+rBbls41LTH3+ONP/aS1rTYFg41sf65oopgpcCiuuKWamFiTLhsr+vFFuajd7laGBtUXfHO7xVYlGSs//ve/wMxYSCgTTT24xOzYZaJOQXNxOwTDeqk5Q6fmboPgR4TJkRHW9anj+y/iEekEZATE5ZzwnNp/k9/6t+UVZU3imMrWxxU7vf4i77VGh2ulqJqnaq64sZYmKKnveez/31s9UaNYoG3vP59ouKsFW0hO7Y2Avxg4ogGTxsn4YsYxWHxvQfabnlwOO4+a7chvfM/ofq/7wM/EAMDvYX643+Dvi7CgMEkwlUTO8u73naYZIxz1X5nsLF9825EG0a5D3871hyeiDd/CLSDSBgM43/EAtwy/6fa7Z9F+oZWmVMtgWUPIvOLmXCPv2f/+osVlfe4dLt3rHUjRwR79IwsIUWZgyY3DBi9HHYTYW5jtJSQooxMH7JuzNPz1L7DcI5DASMJTj+7KymLModN7kzaLruJMLcxWkqIKH7rh/OgLSF+SwLymdMnDCPYzAMdk5NvPH+TePiORuAJ5EaPgY5XGLAB+wwGrk2CrVsRmlvA2+d/2d6v+gWbrFYbm4/8jeHKzC5cuGHY4w9F6KVAXQ7qB9e4lZoWZWT2oZDN36D+/U+6Z3se1TTJ2MzqBSn0AyfbNHf9bh1biU/jPGDn08fWIY1xkCLMB05vz3bmfh7z/3d7iP6JT/y4X4OPbFWEX9mCSvGixITUXjYwG2psXl/uoEecCbZtUn/jxSoqPB7C2QghCG2izW1PLP8DPKeyiaql8DyRsiWW/O7kzuzPY//z9N8M49/Gqq37reu9jw86+sCcdbgOlHgo2HK0hdf3hRg07A/MnXANKvFQsD0n+d9vD9Pzh3w4bTt/X0UBoAa+eur97/MV6mObu82AWyP/DZ+Ow5d7J5Wm0gUA95PK/+rHP3r6+Mc+ai3ebnue+x+VelOcvw1CnMdwNm7pu/jYdA4+JTH4brr1Iq1WT9JKJ4qxwZ3fim5Vtxrdtv7faxMVHmHjrypc4T2o6O1SY/SnjwIHNUf4LGjK38jZUtf9GFseiCeV/9WPfeT0cZuskOmmW+QHe48/v60/Klwv1Mx4Bq6/xa1fO04/OOD1sDh3Xj6F83SX4S3axOGFt/O30i8LWD8lWWtKlLdt7/u+73eEVtLsyyqzjPVvJBdD/TUeWFdJLVUkECImKNxyYROzKS3xLfP/ty/+lylVGhREyrAg8bSBYI4xv/KG81cXcGthNIe+8/e6PKH6562ft7yofjU1jUbKflgNhYNuyqQVgygCya2mptFISXLKcNBNObibKl6B5FZT02ikJDllOOimHNxNFa9AcqupaTRSkpwyHNjjGRWeVcV4wd6s+HSwB931mVR3kYvfbR4PBnhh4jM5fl1xzjxBtuC++e9EtxzIjzR9Urs8f3z37yPWmrWBhltTLk2tWxAOaXR4kCgC2V41NY1GSpJThoNuysHdVPEKJLeamkYjJckpw0E35eBuqngFkltNTaORkuSU4aCbcnA3VbwCyaWpr6hooSRzIYNyTJw9o6XriQgoF3lpCsoxcfaMlq4nIqBksoUMyjFx9oyWricioFzkpSkox0T1/KhNVK/ZF5Pjyq4tQMuvwiCozio+B+BhO55Pwc0t2re93Q7GV3HU2+YRTmDuigjG95nm5vnn1dTY5qp12kZu1xMRUDJ0IYNyTJw9o6XriQgoF3lpCsoxcfaMlq4nIqBksoUMyjFx9oyWricioBzy2ooKa1zdyKRZPgWHTzEyI5oapbbZcXodpNYJ5eMS5p3fL2zeI0vJBFqdqFFGSf1LyZ/59VAay9/19GVO47JfzY91kD9s9/YQtqh/e+0gV0pOYV5KxM4bvLfN/+lP/dzplZdfzkPxQ7J2aiZqlHNuWNLrIDUh0waJbXH+MNlGZtWqNXx9n14HqXVCtgoftp0flW5foVkVLMrE/ZpBKyXZITEHxtdvhgeZRud1F/2yjtfW1gxaKTXCcuz8p9e+9GW7/ftnp0e++kF9bOBbXfzXueAasHu7e/bqwpV/CdDq6NdFuzh4kRhtrrAHR3v0eg4wo3/xA2X0Pya/S/I/ePCyvTf1c9Ge7ZGxbjwqysG7+/9Nc/35iqp0cyoJau8vNDJtXOBuANeBy6SSkIYKijuVBJW80MhkXsqkkpCGCoo7lQSVvNDIZF7KpJKQhgqKO5UElbzQyGReSlB/B+9S/dhP+ENtPsOGnVMRMOOBoXgfijW5CZzZ2ogH5t62f/rYOssk2uDmt4dGuEn+By+/12Px611esYnqJhuPn+dNmbEkpKGC4k4lQSUvNDKZlzKpJKShguJOJUElLzQymZcyqSSkoYLiTiVBJS80MpmXMqkkpKGC4k4lgZOnW79wV1KxTUdRk85ab8uR7XI1NZPb5dFjQAmt2Xb+4VNgUcRiurLJ6stu8Qraji8/Yi7xh+WcVEx6ebPimHCw2kJ4e5O81d/bQpz7TBq2wWQqGwtbBIfNY2x3lB+/HcE5bW8t+FZsLT9918uIBs+R7fb48+5alq7UujGK7WnVvz6jikPy40uYoJpN4zE7o9LaKVKcdZKEFu1fG+gJEzhPtZ3fqmXl8ppoYaSiAc86hS28hAl2/a0CWo09/t648XeworrJ8I4u046TET/Bke36IlhNiqcG25A5z+lRwetsR11NopoUJyFBeM9zkjwdrcctgtWkuLdEFN7zHHJ5gXW2o64mUU2Kk5AgvOc5Sd7nb6WIFzbq6pKfy6yU1lMx/V0+X/XPieq4KLGc1yL3j5WjqCM7ykwfZZS+ar07wMftxM4vFUqYQAsmNR7MrjKGMjhV07hd/z3+noHrj9/1y6GZIzZBukZQGRzQjVWcprQHA1wu97YKsc9jOaF15ohq5M4fF9Suv1egDI49/u769ZcrKpkhWj9z2A8TgM4WZTB0x2imHlL3PWbnZ5WiJr3qHWm1HNeQdI9m6iF1nyEGyApbz9qRsh3XkHSPZuohdZ8hBsgKW8/akbId15B0j2bqIXWfIQbIClvP2pGyHdeQdI9m6iF1nyEGyApbz9qRsh3XkHSPZuohdZ8hBsgKW8/akbId15B0j2bqIXWfIQbIClvP2hAepnOV0501Tpt2XNo0xXU+1R2Sn/sRS6Pu/HwoyQ+Hr1/9P/9HfzAMCes+66N4KN//wgy+98IH9Tiq+2Zov0PBXzOw3/US/Y7Wpv7HcxgY4TPsb3hCj83pVExel/+lt3/T6V1vf4cx2wOA0gBywLXHX9RBCsv6ozvObHfi+otpanEWZTDArwbOcmaeiiDTXYYkaM2Ivkjtpomihp3fpzQtSdbxfP3/8X/+j3ZNBydDANCPaM83XPSm4OI3Y6SRdt1mkxsc+NoNN4SYL752E03E+GhEBPgEeHn+H/yO77JsV6cPfuffi/x7/LH6TUo/oexenwQondlEH6JTnShqaDnUJIH5cZv+BBfnn279pMk4JxyAGv2AxOAwdOyx9bHTeUSUwdR9eNSfOAH5YnAYOvbYdv6og3YcK/Z7f/6np59+7QtRJQxYrHisg32CaX+NAXMPzIjxX7bnkxZCMDlhkJoHGDz/Hk0MTUBsXn/bBTdWa43mbbofrMfIj4nKJy0/Md9525nfjyTsgESU7i673kYcX4/J4ORLKw57LCiMlxayCYnM1gL0Nhif3AQMEYPD0LHHxvg3U36fqPK0E8QJ909VOeWR06jZE2d1BjdZhSTZ+b0CuaqR0rCErDPlaF/qYfzka//19JU//7No1GalmIdseHNCyjaN76uqm+SPCcknMVwqeezIaRtmPvwVU7+M2sFBPGb+D9oK6we/01ZZrUmk8m2p09hkFYs2jHDj87esfYZYtAX/zj/1P4YKS5fAe9Acvf59RSXGRnPBWEr1EXdfR/RRumdyi2Hnz4uCNYNkhSjVR9x9HdFH6Z7m/p+2qvopX1XB4OunHBS41mCNNVKbdjCYzIhrFtdaPMnqDPAR55Eg2aSEFRrsvjHeDD5f0e6Mx8//j2yy+hAmK28vjiRTNODH2A9UrYF5gkMgQygHt6vd19HIc8/kFsPOf3b894lKKyv1G3pCWYZH4soyhEC1MH6NYuGdG5nTtLDZMVsWGXb+02/98e+f/sMf/aF1BSpmG65vh21W8fmjGc3e5p/GYYCtkMSB6QmP3HOqyDalfdgsDH/Z5r59EfpJ5f/gd/xdX1nhFDI/DnO1GWmPv/igWZXHx4EW8bCos2O2LDJcUP86UXkD0tEHs3ymlqMKKAaQqLrEDiYbzs1OtzvCWT9xd/6YCLJAA5ACBhRDq6dftW7Grtb/t/73H5z+vf0UEJuvgazeuuKxwWF6W/E4y4nerz4HZTqun9rgN6d3nfl9HmN+t6P/DdggaMJbfhL5MVl9yJ5d5cbjY35z7PF3N6+/mKjYodnDPhblk0kIAoV+GWRblNJKNYkmUOiXQbZFKa1Uk2gChX4ZZFuU0ko1iSZQ6JdBa+uTX/rC6St/Zs+r8nWDaErT+OrDZhWfWPiYyWeqmnY2dUugQWcSNPwE8r/LXmP4lw++rx7UOS3zGwmHJhtdYRJNoNAvg2yLUlqpJtEECv0yyLYopZVqEk2g0C+DbItSWqkm+3hZv55QaR6/MHW7OBMmqAurdjDdK0eXcOFdmHZ+q4DXRYqTMMHZ+n+lPa/idRpTSayM0AI3rILxO6xiTRJp3WeTzD17SI4IbFhJYRkV7101G0zwNWmirKbUHrzb53/n27/59JOYpLKxBGnqFqHhYKZNmc25MLnH7eJMmGDnt0JN/d9srbqD6LWjwyYq+wPbPtjCNFN6p6qPmJINzlIZism0W4Cd32+RUJF1hY47esVnZUMqQzFZUf+fsZUVXl3wX6jns03kxN4XUbhVs/CYevpx+pTioxBt9w1a/IFTLsHMELNdJzmK/P5OqOmX5MdK6icffGBol6qes+Lu3+MPHzZRj3WFot/VR0zJas5SGYrJvOH131dUrREX2qDa0bj6mOzmMqMNYMXPgZ/tOiFZPV+aEtw8qTAz2sDOX+v/yde+aLeBfxoTCnrGO6dVLGYrq2R/e73NZ06LFRWrC2kb4tMUClXYUf/77SGWDdcIcNHwDfK/9Ldtknrl5rd7rWU/rt3/tf9d0/qjD0u/iO6+2+8urf/BrV8eXj8Sy6Ad65+uPpDIzUOgoUkMQTwq1U24ahY8MXb+N6T+n7TXFvCOVfRadAj6Ao+QHtmyB4/N/X8bDPEpHMz7uP3DAMHmAYb9t/It+t9WVvFHIUBGDALa5mo8nG+tRXOL/O96xzv8dg/RflwcZWHY48/rsKi/V5TVZeGrZAnTaoanef3nRDWdjs5EebQdTPzuMsTTpGxOqpTJQ8Qwne38dvUdD6apXk+w/p+3nwZ+/n/9vq92/LkUl06SA/mxGlq4Wv/jp4X9ts/PxPodfwQ1zBgEORC8/zHd8JTx+9a9fRgWSd5p3/37qQd/X45IIdulbD6qlEP+8nG6x99TG3/eW0P92x930E7W4YMxYhNIGz3Zv5Ue7dq+XFYDeVB7zMKhpp3/6dT/t+21hd/+Y/sCc04YGAttRdX6X+cQ7TMfCDZHtW/k+MiIibUFumirphYYLUOR8Yc5asiPLyd/6Nu/6/TOd3yTc7kr+UsjwZj8ZnbbwqGmPf6ezvjjXML6/38AAAD///4SHgsAADVTSURBVO1935Jfx3Heb/EEtpx7l3NhlZUqkwApUsqVZL+CfWkR1AIkALoqsv0ckZQqCSABUCKZSyaPEMt3EUXij1RJquKk5LyAK3kCIN/XPV93z5w5u4slRGPJGYlnerq/6Z7p6ZkzZ875LY6eIh0ikTyK0uFQy5VukAlLdVyE61PoqypZlSaPRqYJcKn8aqDSxCJNWGK6CNdlv3ep+Q1+OaP/P/7t/zr8p//zjz5mGBv+jz6mf0f/U/YE/zs6XDLE0RFQT8C95FCOxREkTzD+R5egx5QgQ1vIt7gA5SUK+R9wZvLp4S/+6OuHv/zXf0zLnppYxcp0Ea5r/D/X+GflibMnLI3Z8/b/ERcqJMQto4GJJpha2SyG2SppYeQyEyiwvJBXU4lL2EgRqWX/xff/x7/934eP/+l/2sDZMGI4uQZcQuyg9eBzeXniNIscbstw5Y3JGKD5f9ZtUmZPnzw9XIJS5z3xiiaATtT9kz/42uEv//Drhz/52h9ATxO7RqCoG0osVbqxmJHNy4o/OmKTLsL8s4XKx9oH2a42sOiPxn/TtS2jq9IVTsFSHEZb2J1Sf6uxxSIE1uRT6m/Eyz4cZ07IoaCTh/H/+LfYWSH953/6R+AgtBWHCxQ2TlZT/icHCxh2Uk1tDpBJcEFy9bhyIbuE/7DyUS8XJ0q/8TUsUH/0x4dv/L4vUFZp58IaTKazKzi/XjdiM2cX64W1OZTVmvt0p7MrbOtsxGbaLss+3DXz/xG24bwxluQOc0ZxaWNXKTFe3hFKK8RPYd1DOmuxduU6vFogzcRg7jLj8uLsHaFQEC/71dPNX5/D/1q0PsaiFbsaqW1+t6cu8uh/LERHirS2enFB4oOixR93Oyh/4/e5OH29LU6szLTG/6se/4gV7LsVaowLixqLjrjssEN+GtHVZ4Ep7LjUrh3QYbzusBNwCtXVZ4Fp2Xc/NO+ajzpHNTGyHXYAuGjRnf/9//7z4X/8v38OPgny8TAX7uYaxSWTt03fKbn2v8DO6d/8HnZOMS6s7ek0+8Lt5V19FpjCjkvt2gEdxusOOwGnUF19FpiWfffDWeMPGyp3XefNpkMZIXbHw6AxxsQ/Q55qZ7unoiCBhdnIZf9C+d8WK44n0n/D4qWHw2987V/Ztn76KLfGf39irfg/TB79PMDs3MBWpPmydFJc2SLZ1MxXtVYb2e7CZ4NDJcu+XFnz5f+9yICX6Bylafis+DPvXaD5F49+Nq6T6O9ZOcC2fvRChQZyF0isPAAdoxQKKWzPaiUxlQscuQskVj6IW7FICylsz2olMZULHLkLJFY+iFuxSAspbM9qJTGVCxy5CyRWPohbsUgLKWzPaiUxlQscuQskVj6IW7FICylsz2olMZULHLkLJFY+iFuxSAspbM9qJTGVCxy5CyRWPohbsUgLKWzPaiUxlQscuQskVj6IW7FICylsz2olMZULHLkLJFY+iFuxSAsprFi5oxJHuZCT3CH7wK1k5GQ5KBHKJ3bFcsg+cCsZOVkOSoRyGZvkDtkHbiUjJ8tBiVA+sSuWQ/aBW8nIyXJQIpTL2CR3yD5wKxk5WQ5KhPKJXbEcsg/cSkZOloMSoVzGJrlD9oFbycjJclAilE/siuWQfeBWMnKyHJQI5TI2yR2yD9xKRk6WgxKhfLCLHRWfsWoSUmzunUHrGU1i55YHMwmUV51Jh9SIKCWg7cZy/77sL/8jTlb8+bNumTKFLLOx55aJZWRIjYhSgYnHnOnFmH9HeOnH98atQday6WWOEFd5X5VroH9IOhykA66483VpXr9qmyPEVV5rwMayv/xvH3mu+OOb1jiuw3S5aPPPdlTdNI9CEP3sn5SE5N6sfQ5jeUAFCEZPdOIoBNGDJyUhl/3l/xV/vEF7HMRU0QQJRk904igE0YMnJSFlV3lABQhGT3TiKARh4M2jn4t7UMfbtKI3ui2lLqNwidV8Cx6O4R2w7HMD3vy4/D/MwkkQdazmN/CMwmXFH+Npntxb6TOiOt6/VPz1Z1SlgUEGYT2rJbXZeFWw8cGJwoIuuCCDWPbhgeqN5X9fs8wn1TElopw8UVjQBRdkEIarpeX/L87/OzuqswyvD1kduDLiG3JEW3lSubIqvVHYr/Nb8cBxXanRqCwGurIqHYAgXHoyJsCb1lq9SeXKqnRqEuXSkzHCaoFLtFFZDGBlVToAQbj0ZEyAV//hitgVgza/TZxXWZVOT4py6ckYYS/++MdCtd9hHUQWRJBBpEeM2uNTKJlyr9qXnCeJHwQWRJBB1Aqg9/iESabcq/Yl50my7PMgtngoyCCqw0Dv8QmTTLlX7UvOk2T5f/kfC5X/1i9CIyImiBCNRI/QgtZQnRCFdjCg7XLq6oAZxxHQiRypvuayP77ZyYOI5f8VfziVwv8v6vyLHVVZIWw9yGmf1LhQ7K0l/QKSmp1fr1VjXyutJlXRrZHm/JHfa1r25Y/qefHSdz0nvZ5UYhvVVwnxyFbZ83qNKiCEcl5aTaqije6rhHhkq+x5vUYVEEI5L60mVdFG91VCPLJV9rxeowoIoZyXVpOqaKP7KiEe2Sp7Xq9RBYRQzkurSVW00X2VEI9slT2v16gCQijnpdVG8TBdq2wK+3pVtdGdThSszOUa9brXCZT5Su7m59dlH24z95U9UfGlk+VaZOZ0Ky//r/j7Es8/X6YmC0g3GSivDK1yo2McF9MtqgTR1JQyq8zSBlIZy775uLokfFhuNyEPYvnfXFH8EX4biA2kMlb8fdHxt3n064ejbZAq08azMIz0Mq9MualKnCjljqxXl1R50EEIXxhGeplXpmXf/VBvLvKYciEyTx/Kf4ENQujCMNLLvDKp/rKffhKl3D1Vry6p8qCDEL4wjPQyr0xfRv/bQhXdDsI7XE/eQhREwygb+dOymC3vsxrXrlXPhCipZhIy3PIAnFQWqDcs7kb3so+o97Df9ZGGIQDL/+aBqT/EbHmflSCXDwFY/jdn5I6qTMrmps7fcnGViU5ZUpIpN8lGXBjLfgSlfMZcHlJeZaJTlpRkyk2yERfG8v/yf1sUFTPMFSHKq0x0ypKSTLlJNuLCOCX+cqGSRualvrHHcmC3gi0nwEkA1P8N8xQZNSoZywHfCracACcB0LIfJ4npF1GjE8eycJtA2YZOQCux/L/iD38IofxMukbHNogQL/1CZQEEpqrtrHIS1zj1WPbrRm5sXtgGNK/BBrQ1sHtJuOxP7/Ib/5pfOW6DR1W0nJfl/xV/F3P++UKlgLZQ9kvPKqVCFvj5SOlSXrT0rFIqZIGfj5Qu5UVLzyqlQhb4+UjpUl609KxSKmSBn4+ULuVFS88qpUIW+PlI6VJetPSsUipkgZ+PlC7lRUvPKqVCFvj5SOlSXrT0rFIqZIGfj5Qu5UVLzyqlQhb4+UjpUl609CzcXuafJ/Qwqz9hJb8Igwwi7vPJ2e7uShtBVmSTTFjLvlxVnBNkEOHN5Ew93BzNrCIbe8IyifGLMMggQltyphaaIWYV2dgTlkmMX4RBBhHakjO10Awxq8jGnrBMYvwiDDKI0JacqYVmiFlFNvaEZRLjF2GQQYS25EwtNEPMKrKxJyyTGL8IgwwitCVnaqEZYlaRzsZC5f+yn87RtpCsVmWilRcrA1kRlRYM36TgeW/Zd3/MPeSP41UmWrm8uc0rotJCLv+v+LsA8y93VC2ILasBXfkM7ipTsJ89j9oguvMo6TVAoNJesII4u9GCjNoglv1yHrn8jyjB6awFSETJir8uLjiRqm9YfrYUtUE8y/zbefSbNGdQXM+53Xg0ISsbq3wpHX0q2OD1REV89vDx4dGDx4cnl7Dy01H8v+3CiHJzl3BCH//mM9n458T9X75M+69cefnA/9TAB9DL/2oShiripQIBtAmGeF9k/619z8H+3fsfmCq+zeC/Wsw+vnXtqvOG65ex/9nFTe9S1KgNAowXdfxtfjx61MX/K68i1l9GrHNeIGoVt969Te9e+P7HQrXpTp2Jm25w3m67nzA5QnmTqKjcpoq7cKOv2L9x628OD4cFhfhLeF4kbJvYtktA5L/RSyt3fvqjw5VXMHjN/t37Pz/cv/+RVZf9O7d/5ItZsb/V/8X2/3nZf/317+KfVoe25pYrV146vHv7x13/w9aXsP8a98iTADXE8wXqP29A9+9/GEPH6Lxz+z8gjv8UvLJEad4pv0D9b/+4Q+kjyOgHaQyY/wMNPb+vMZFVJYNO1TXIgKOssmj/1jt/e3jw6LHdMbgPoOsNA4LxxMSMc9CKBGAyHoHhctZ6ikn5QwzeZQg9vYcBfv/ehzaWvlfjAP/wcAUYqmB6Efr/vPz/+re+gx6pZ4fDZewu38PiXVjssvlQqC9T/9Un66T6aYEkjueVdRH6z4XqHhaqGv93foIbLm/KLdU+dbyJoLJelP7HjsobX5tITi1XunV1wlIdF+Fa98utmq0eOj0Xz/JRoZdvvIMd1YNHQHA5Ybhx2bEsJxkYnNBP8D9fdCgCE/ZtwQL8zk9/jIXqJfAMfOAAv48BNl2mlgsVMRpgShTelaZxpAlLTBfh+hz6v2sM6u3RFU1koL51fBU7Rr+Lzuy/9q0/M5/YPzyEx+grl1/G4o2FKpLXimLXwVEG1IQl5sx+6G3+j3IQo8JarnSrMGF9Fe3bjgo33Br/tzGur1qsIzgUwvLzBfS/LVR11fSBZo9a7ywYPCJ4ZVK/k9tzHFWuVhGX6eIEi3Ccdg0z+zf++gdYqH7tCwrt0xzUcQ24hLq+x2K7Woua3DNcOTCQ3blTF6GDLVT338dChb8daI+RQHFH5QsVayOZyqbXOV94/3nOoN6xCWwZFygu4LX/169973D92puE9InV0ZHXvv1nVpnq6DN/9PvRqf6f2XeNalXzlTurty0gZecc/2V/O/5yK2P+Lm5SfPSr8c9jjrjhtvG/yP73HZX5IZ1h84KeUPyRPiWZL4CxKl1hW3EjNtN28VAfAJyQj7BQcXo56nC4zd3RK9gdtdRV6QpCZC7xfdsyfwS14FzCf1j5bmNH9erlpvcF6X+2PKkH8MdNLOC2YwT7CTxz7dobh7d5OK4O7rR/IyajLIYv2vhnr/eprk9dYVtnI77g/edumrsqJp9/R37DLY9+JmyXi9j//Cfdoyc2atsuNXaVEuTlHaF0Qtz/tk5afDfUzyfJpP1wuHHrb7Gjemyj8BR3Ze4iuLXlHcPRrU6tKttNzcz+vfs/xwB/5IPLuz30+o5K51hUyERZlxmXF2fvCIWCeGaftbmzOa3/M/vcUd3ESwausUdtkbl2/MbhretXZTXz34F9Kfee+1U+kizyZf+5j798S88zju2lUBsGyuKlEAtfAv9jR+V/M936WDrK/intsCU+Ne/qs8AUs9Oldu2ADuP1bUzIxw8fcUbaxCSvGwgyTkidWhaYYP/u+3hbcu8DK8j+nTtly0wcUlffWc907eoX+67EpXbtgGlixtZCZX4EgO48xo5q9rlBV58Fpmfwf1ffaz/Ttau/7LvvnqP/46y1OLrOj8L2YGYLnqP904LhudjH+ZCHTqdtMO237bYylz4OsFkx1c52D6VGAgvTyRs3cUb1CI9+wOhs2g+989FvU6kxUu3Wvh1C2rM99DagPduPW+ah//xU4sHDX8cnEzzrMa9gZ8MD7ZpOsk8cFxzTx0dbvLa50h47uwWn2P8Mbz8ZY7TPR9dMOHPCo/B17KrMRzSMdAW7To/Jp4fP4MN4rKMQmHgzlA2lpEsP8CLjAeraOSGU2QsJ04r+7nyHJQWp1u1zZ/wQbWdyv7VvuRKoqpmX/mv82f8HuHlRl/zPdsW5TKudarfjnwbgT7TrwWO0rZ2Feh8POJB+2cfEdtwZf7Uuv2PyfTGt0T96GWMutjY+ePjQzg9jfagKSKMq32wzHtg34tgv5pyib11/0zDqP6soeRzjCMNuqbii0rvtjIotoo9o/8Gj3xxemcUXFaWjWOrTxP89YL+Uak/2/2n2J49+zag1jjRdtU3ZgK2s+csF0+qtNrKZ461isc/vqB5hAFmLiSp/ikPvV8unBibQRUCWT7B/F7upezhMDwiIOIQs9qWWQcTzALalfYokkeetW/YIpgkcyiu0HYDiTU3Xf2KhwzLYv3adO6Q3o6J2UZSfZF+O4uS5feffY+L4o+xr3/qu6+JqBcN863cHO0jq2yTY58S5icduJmLk1tE+z8a6BUvAVpHt5mEvc0vNPhWq/9TBRfMVtMnSxP/ka/dwUv/P4n/rEey//Y7HltlsnbSs2N/0D2B2kTiNidVvTMWQHVngQ0wmYnPH24DI2P97uOHYd1BmuPm62Gf96/APa8nPTQNF5hOrLyZy7qio6eY7PzBMU2203a1gmH66jqMCyjZpsD/KZWrkW5lCpblySCEATuMveOSD/Xj0M8DEes9qJTGVh3YRLpBYuaQxyqPRDdADgmcxDAi+1bAPOdGJ25hgrzKoT3CE1Ckf7dudCI9/5i0KATS9wx2RJvyu9UHYN7sbxVSCJmEiHh9fRXBdncLuYoG6/7MPYQ8KNGlZEcUcOCwzkL2MPr5nQXc4fIYdxDu3/s7usFPF1IHEevxKn81jXX4vxT7w84Qw0nZv/LYMNfAfUunP21igHmOS6R9Tc1H6f7TfT2ahD7br41spt8ArZOwk7M/6v+d/7lo4oR8//M2Z+n/58mW8XPie3cxKt9hLa8KDx78+3MON6iEXEran8Uf/1/7z/NJujlKI3Bfzv/H67frunR8ePsPOTN82aVG9hnh469obZp8OYUzfQ/xxF2cJ+k6yzxHlW13umqv/PTY/jDZw/Nl/6qebZT8qFf9fu/49PAW8GfbbQIUuNKmwWklM5YEW4QKJlUta4yycQeEGmKzcUQmkPLRuCYfsA7eSkZPloEQoL2a1UIlFiG3NsR3nT0H4xquFmkFMRWNwC5zdrRqObPG5dw+H6RhYcxJGdfxQjjU4QRh0St5EXJt9bmprMjns2zmB7RC8BjFa8DT88VMgQvqosj7xqzB+D0NdnKy3sGi7NlxPsU97fnd/CdQRFqrvkoXkGvhYSL3mKmeZyM7u2uJC+/zGn2Ilh+I62Lcd4PHVpt3RblPKUwM/quUj79j/K/jZx7u4CY0p267Wb+2rjllDp9i/vfH3RRu6ED91/MusNr/U/ps++Mt741cuMjfe8V2L7PPG8Ai7UUuEtRq5mHtdPinw7e1Z7btC35m9zQXPRy53VA1g2m1Qm+luRAhy+0ah/59+8vfJShHF0+SQfeBWMnKyHJQI5YNl/zyhYwrJnIk9Bs1VuJHNP6W7xNV68hL5fRLK4VEqIPGYMx3hrR/OqHjXkX1MaK4tcacwfq2X9n/1y1+4mnYVivbvvt/elkgvMPnWj0gmTvDv9P2Hfd7VGJA8w2DKn+OEBZ8oCOya7MUAgvipNd6xmuDE8dzFH7fSPn3Lj1XZ/3v8kr71389GUMnaj7uofVGf9qmPjww6M+FkpxTfepr9K6/kT2iIZeIbpHv2s6Le/hXcoYl3BQf7on/m/1/9EkFvDdKijPaWdIz2xCcUGER/PMKkbua4a+AnInYjsnq4oXCc7n7U+gkm+s9HROqS/6nAvyf6AAA6xFMuDl6mmfvYxdy7i3bBvmEJB+nnk76o+3iy7U3Y4t8xPuaszTO3m3+NHRV3x8IW+2BGYlu0y+axA9tR7RPIfjOu5BD/iRd01/mH/v/qv/7CXMbW1ZdCXo9cT1xcdRZIju3yIK7xx8f/eOQOrewPU9//EEOiHhssSj3XZXkNqRFRSkCnh2y3335CM6tQ6oKcI8RVPtTB4PmHnLwj484lMeDyuyue1xfc7jy4+0Z9E7CkqdLq2x2etOvnC81PP/kHlqb2ue2+j4A9wjdUT+1HcPwotA4aNfmEG1voZwXien4DP/V5ZF/Q79u3Ozn8ws8s8P/DlZexWOBRwQfEzGHn5AflXGSY8jMMl/PKA9ebt/4dKPrB7V/DecNbfCxoKT+k9f6/bjsq4Jt9ngm9+xPY1oRFvde+/V1vfNNJ3XWCSTdzu4GgHbLPDr37U/4EySfye/d+fnj/fX7+gV9d2thggvHGgebW8ef3YNeO3zQ9WlSpn0mPNd5D5+XiI67yA85k+CsG3AjYTYw/44+Pt76Ie30uEu5/1EMIPcIhOu3n4ug4PjpxN88kC2nbuT4OP0ABBq2PRHr/LmNs+bkI+0/73EFa/wD5Jj6+BRz20cYWf3xU1RmUKWkX3WAIV/KXSf4rhLhJDvaPv/+9w9s8hId9zT//1Ac/YCa22X/lVezYeSM8Ian/PURc5YP0Oc1/arUdVWcmCkH01iclIdEu67zygAoQjJ7oxFEIwoKFQcNYsIhp1b2IMMBE41zjNv5whMhDboMAnCaG1e3NTidB3jHT/lBtUxTy7Zv43uvRwxPtc9FlwNau+M8dfHJb/yhMYmOPjM8wGd/BpGQAqv/Hx1cRmG/YzV39J1aq7EfJpttdyTs3f0Kj9tuiYD/FYBXn9hPTtMWF/WDg0z7vyPT/9et/BRq/lYSd6Cv40cbrw8F7Ns/1qjHNPtvU/8ypjWm0Irpn/X6AM6ebGIfa/+vHOC+E3b0UJgmIghNcJGKsQIw/O+JCxUe/Mf7egj3uniyFTi92fQKLYt6UbJEKbBAWL/Rl/KAeeB6Ev9reTr+HGy5/s1rj/yT7XZ+gi3Ggc9Cx/xCfmtRSzXvlUVGAYPREJ45CEAbePPq5uAd1vE0reqPbUuoyChdbT7ZA43S2GoYHuw/xevUSJ2WzfxmDZHOOFZhQsGBx0vxNHu/wPi1bDBb749kTo/s28PYbKddOzW3svGU2G4Czxy42oNnnnVL6gg3iDvTprRuhN2/iXAKPfsQEDjQXBDI4Ec5q3xaqZp91+TgakwM6PRFAS7iLc9KhKP+zzTyjUuIjBB8t4WWwWAdfOGO3xzYF7xnG3w6a8WmJ7JvWZp8TkxbG9rpl2cdih8WY5zjc+nD8L+P1Ot9UGYIKSDCBRjCjeBTneGYAPJ6HxYIMvPrvFf2qG6F1r/Wf/uEO0xaAYv/dO7n7iF1Xsc9mHaN//a7bm0r/28LSzgDVfB1RsBy+bg3seBP/2w2Gb69b/0+z/030iRj+9zzst2buZN56Co3CZeZ/VXZ01sl6+o7KkAUQZBAjQnM2GmA9l8Uu73V0oq5QcEG2cwzsIHg24YGEBQgT7DInELxt0MB3ClthLvRn+w+jAgPEz0ewu4kqQdhZgE9kDDLsPsHmze0fWZBcwd8Asi/oQyPPvHje4lt0srULQQVHtYwF2udEY+Idk6S9JSqOVWuo520setX+tbcwOY6vsvqQvBYnHc2aDRB52OzwmzgL5A7BUjNUz5zIl32jUTjJ//w26SYeh+35in3g/4t96jCFyHzn9gYo778M8S8+WHtpuIz/zP+USx+olvibxj9FvOTiIgkXUo4nfclU/S/7wWv2GXPafTAWH0IHd5VcJKp9LTxui5Vbv0D5udyjFIFyfMEFGYTha8nmAtTGXwEp/c8nA1artdrb3yH+Po99096bsLbm5URhwmo7o4oTOzsqrxvYoipJl56M2UdbvUnlyhLNsx/76wkcazCZ6TsqYdLSnHJcoknxq3R+R2UKycB/t3FGpQNaoeMcotjXo5Ew1GGBEwxvhw7nne1X3gHtUBNF3l2qfbvbNDtE867e/4UD18tPFW7xsatVp47u+yGHxZU4TnosqVaHZX7ewTM5pdf496qgh4sAQcR8OryMENalrovwvcSXA2wn1nSzXO23n1d2/a/+11vOALR2ecbWFftgzvzPdhH/S/SjoG1y/4yPSxS6Qu8z6Np/igKAQj76uX0+gt/Cro86ZJ+PaOOY1dbqzEn9N7y9nZZXzWiOrReHa2q036zyx/Vg2fqDtnCnzNhRSrS//WVZ9tl2Hs4zOc7IjnZOvVaNlT+nR7SVq7FWrbIqHQtVZfam/C5fBzl7sFdrj0/Nkil3a32ptuApfkLzd/jI0s9+7K6FqOf2m3dKD6KKJ72vLWV8S/RR+7qbveN9u/2Yswww8d/81p9DAqOMat61QPKQln+Yz3KLdtpkAsYBhr9zOz+4NDFqEcMJ/ADfBPnX5Wmf9qhB2kgd49uZt3HQGn2FkF/q38BherWf50luw+3llRPE9LPtiOorV65gQvHR2O3xbeNDtKva547KPVN0BhmE6cjLlp9v5KCt2c8tSN//uhvhG1f8bQu06Xz+t56hQ5qILPPmxG+o9uzX/hNf7XPX/O5PsLgTBImNA87EzA5ZEFy79lfYCb9ppe3lqe0y+bV/tf8J/GwqNxUUmcWnQTqRvmVlanmCGxB28rgRbdPTw+s4yPcHKW3Bjg6fx/7MRsTqRqjGK3dAX6qVWv/1W78QRY0gQjQSPUIObahOiILdqpGBtDtWKOuAPt4tCNRZHcqyitC8Y/DRJQf32e33r3Vdu/3NKtwRZcme/4dvqHin4hlLtc+F5y7ecOmvPKih498FmvWfOzY+hrDOfdzlrVP2jJS9q5OXLeXZCP2SCCxoOLt5+/gqxWq+01QM/7/2bxGgtsiS/QSHszi7KWd45mc+YlNpsz/abQot01g47+z+t10s2sQ/sWMBEb3wdtqb1ysvsRHWRz2a0U49+D2vfU7UvJm4lvhEJJTqcwe0saTRPtvmbwbRfwQ2v+uzt3fHV92PVtf7xW5y/Pk4zDNXmwhkQBB+LvaLAtMyXgT1GP0g7MNK+9RCCxWQZf7N+v957Hu7zj7+zzr/qT92VOxcdUyaTcobVK59lRCMbJU9r9eoAkIo56VV7KgwsLEAcBIBaltb3jFYHlKvKTVXy6R5+G0/PbD6LtWWWfZv8NwGuxcGoGlCFnfnwZAO0yu7LqjOr9fa8KzFBYMLHz+15ITiBHiXf9bGJq/X4UJ1C2dU1ixzAt68YQGlvdTkWJV5mO4fb3IHc2T68hEFP5nBgpmv44m4ZLsDfg09cbO5g4s9B4Ft06OG7Ln1ff9TZ94IshZ3hn7Y7t/Qjf638xf0ddPRZjA1OUNl5o/gV3tTiTbTC0yb8zHw9sa/Pqaxur0wwE6UNVqE2EG6fStG5UjVPm3etR3dR2GfGB0RkGaSfVL8XIW/1yPdfb7QFGtHJftkc1zH8XA4/i4ZfqHA1qr/tLc9i3REbQlxXVLHOiZr9NNSZdmnVLys2nNq/60l2ALaLpCrXApRvdTbGCgyA1rZFPQtpJK2kmeDtpR2GXv29dcT2GAzBZ133sXbNNva0gZ0egeeyb4midun7icYYC4IOQn80UNfZ7v9T/k8z6iwlPb9I74PwaUQWxek3KFZ0S76UJOLDQNv7D+/77p39wN/REKr2O/38IjGt1fWVbvwUPS70Jf27fyknDm5DG1hc5Ac7zSvdpjOhQ0q6D6de5kr2zdItM4XDHoTWe3rTu6NggIIfTeUd3J7YwcRz+RyUcw2kPomzsbiURqN5acE179/1drNBZsLSy6w/NgTO0G8jfSU/ad9LRzc1bBB9vMQ2FeKt3RiILcDcvhtFn/j+NuOiudJTSfbxze5Nf7ipzJs0CT+8+zNG6H4++SX/wVqm2JUFXla/HvcfWT+9zo8wuCRA+MY+kr/aXGMA9r/9JNfTPtPvDelXEvbTGplGOn4rebEPiU1Kf5m/ifO1PoyVas1emY0etxUbjCuVmtxNrwA3SqAg/fGJpQqHCjeCUMvKNJ2GMhNhxLq+HLDhQUdDB1O5C7My1qorDrHE2z9nSu13Xc3/Jwg3chJYLuM0K+vgz/c2K+PMfaoeRcYGGL7mfJcyYp2sbdCD/hoYL2wpnxavvjm0LE+J8hDfKwYCe3hX/m81nZAfOvGjzoVQfYxpz36eX0tVFEfhPuEQU9g2qdeLpR80WCPuTjfewz99p2sFMC+zrT4w+0bNoEpdEfZbsTOd9JxMQbN/5TYRG9vPVl7Nv7HWOD5MsD7R5Q/Dt/CDth/9gKrzUzdLdAnt975gfnPa/k1Hn0ak2dI997/j3Zm52rcZ5z8PNezWITgM/ifP2uyhDLj5PtoW359T0lrSJDtTTZ8FKn1/xi7Sfucpfmfu3QurjX+qO+TX/6DxSvDyOKKxxPNPvvPN5O8cVE+2n/9298B1ARhfux/bbKDSh8gVP8HNWbLZKwUVYJovFJ25dvrANk8+lV50EFIX2EY6WVemdIFiROl3JH16pIqFx1/5gWKuZjQTbyDGW0gd43vYdJ+HdwnqMvffdVzJT+jwqQ0t/vX03ysqG/9+Gh4D19Y2x1zsM/HkwefYVuOjwx5J5zZ/6ntRvAxJKzwPIMLn/tHyvxPAvMThs8e/cYG8jFwvBGxziUQly/j9fqdHxdnWaf9Q1g7U9rvPwOaiTX4ZbrXJMf/LIz/Fo5ll/DKicedCWnaxznmtP+j/78Pf3CH6P3DWQwfm/HIwjL9b3jQ9Bvt89W+/yCX7Xf/06jeNNI+63LRsM8cQgckZfyvvPISbmS/nvqfC5rtWpsu6owv9K1BtOD2X8aZHe1zed7rP3fxfEzzlrFt/ATjB2hnjj/7549o6oG8mzkUdL8CqP232wOaxdoz/x/jphGH9QDxJ0bv48ZR489uynZUwP6lXeqc9V+LebY461hDXI3pKpJGei1emRKa2kQpd2S9uqTKgwZhC1VlFCtoBBF9R7eNbsZCyUllgVreZ13/TUuzn7sacKWimYkME8oeWQSItrMCEuR34k+euBJumd//2YftLwSgn6jTPbo8o33e3bnbsKFqdf3sAXc2M6kD2g8aBkhEJZ6yLNDd3xAphY6ywHrTDdE9xuz0v9p/DXdSa1vzkR4VQ2UjQm+zT2Mjhryarh1jQbj+RrJQgWdLXKwsoX32qwELsKYN2dh//9M2V1sdAjz+7FuhtmvoYtSRNr7j+NtPimxRBMhMut34ycnEfqd70n/5TGbTVxl/tks+vuquFrDYlzdtd4ffCZ42/lThLW+foOClSU22K7Uf1xPnSPvQ2HbTDVns229X2VHw5H+7OciIlE/6Hw0RRvmmLgQ+dI4o9qM3rU5UDaIpLfZzR1WYss1cdZVXmeiUJSWZcpNsxIVxgn3+fuvBZ9j+YlLbTbAp5V2MA8P/kfbWUtiXKKJ67h7qo0IELKs0+/2Hcq7RPuq7gZ3QCfa5XefjkR9Gp32/s/mOim1nW3To7trbaDb76gWhfMxg0HOHVzzF1kZikFJfWqQoS9U+f0JD+7JxBXfc+BBy4n/X/aHfALip2un/Mdroh8fbVtpExviZ+iaW/bH/vrBcjb6RkEbl6Tvv5d74c1dTv3q3+lICvf7I+QEotgZp4n/bMWOnxr+EoCdh31HhjKol9u8GFuP0eHt0xU6uptG+y7xBvtB8gKakFjXVcjSR9q/vfNAbi7h5i5r5+0a/ubmd5semVDvr9C5fEP292RdeedcOMYdcmKpvgPg4JrCJC2MSfwQJkQtV1SypeGNZ/FATjAknZUFBn/32S0ESgkYM9rjzsbtlRjiALHD2YHCJbwmc1FrxoOOr7Wb/Eb5j4gGypYa1LftgX53ioyIfVfx1udvnK37+dIWLCvmf4j9KpDNsise82ecv4xnopq/Z5zkQJw2DMr6DGdsTulLACczEN0TVvtpGGSeE3PYUB3zfvHwFj8IvUdSnVOt1UH6E3REfh+z5AgasnSjw5yzRTmgpVTud9B2F+gNvtH8JB1yXYZ9t8EelVmVUMpStH+gIv/nid0wcf0J4s+Cf/OHX/HaQ3LWgFIhHJS4L1MU3arwZUcnof7MFvuKP//pw3uz4xwVRl4/fLTH+eGM5q33Vk38eIibt42bcFLw9L1vO3SqPLfrEXvObvBZDKCn+O3/2lQ6cT/I/F3qmDu9qs9ZYDslWsOUEOAmA5P9kFmpUgnK/UJkCj2WrtrPKhcqi0MnCIEhFy3khqy0sCHaJTeBCPqEB0dKyD2eEN+SVzIsDnSwMolS0nJfl/xV/F3P++UKlgLZQ9kvPKqVCFvj5SOlSXrT0rFIqZIGfj5Qu5UVLzyqlQhb4+UjpUl609KxSKmSBn4+ULuVFS88qpUIW+PlI6VJetPSsUipkgZ+PlC7lRUvPKqVCFvj5SOlSXrT0rFIqZIGfj5Qu5UVLzyqlQhb4+UjpUl609CzcXuafJ/Qwqz9hJb8Igwyiv7G3xqS0tC7IiXTCWvbhAfNLcU6QQSz/w03cl6ZHetriqLtUZBNMWCYxfhEGGUTYTc6yX33RuT6d2rGxUOEf+G5vjCiZKRBPecVVXqc5ChVRaQHwlLzsxxPe3EP7E22Gl2c9r4hKC7X8v+IPj4PthGEeIS9A/OWOqjXRstrcymdwV5mC/ex51AbRnUdJrwEClfaCFcTZjRZk1Aax7HsAunuaZywLLy3/d3FJT1XfuOee5Rq1Qaz4O3v87Tz6TYZjcGw953bnxxBkZWPxvQLfr9RUsJVd6A0CjDqwyz4GubsLFo+JtHz5f8XfxZ9/sVBtwrmuBGUBEbnBS2B5N1NSsmGLwbVtCKdlP1ei9GBQG3+FhIT8qrwJVVQeuOX/jT9X/L1Q8df+cYcuykv4IoAxYPzBKFPEdw+fywbwUMw6E0FlLfvL/yv+1vyLHZWvPXWJIKeWK+3oTtxYquNoXOvzmjC7d6vRRi1Xetk3D0xcsvzvTonrir96EOQT5wLOP1uo6q7FA539qQcgMezW0SZp61SdLZV2n9iVbKJ1qFJEJim7tmXfnAW3LP9bmFhI2cXijbwVf+aZr9T88x3VEAzxkxRFhPvlxGs3vbrCttpGvOxj9pkTPPg2Dtr6cOR0VbrCiNzcCpyx7MNR/O1oGwq6bcU/vXCm1IVcV9hW34jD6fv+z3/SPfRZrVYqKhu7Sgny8o5QOiHuf9sjLZsjzNDoVYljQsTsmHD2jtArW91lv76saP6CUyvX3SUZS6SZlv9X/HVhYFHBi0dLi5kaOoFw0Oedf9hR+R+ZMBs7hnbYtSkn0l19FpjibuVSu3ZAh/G6w07AKVRXnwWmZd/9UEOtc1QTI9thJ+AUqqu//O/eWvHXosajw65doGRQuYwHVEw7IJdByPMlZLOzScPsXFLt7O5dKiWwMBupw79lf/kfYRhzfBspG06G1Yq/7e65uCsdVZiNfAHm3+TRrzaO9DwsTuqXLXpNzbx6q41sd+Ez5yz7y/8r/jSVav5Vm3/x6GdOmPS+Z7WSmMqrB4siiZUHrGOUQiGF7VmtJKZygSN3gcTKB3ErFmkhhe1ZrSSmcoEjd4HEygdxKxZpIYXtWa0kpnKBI3eBxMoHcSsWaSGF7VmtJKZygSN3gcTKB3ErFmkhhe1ZrSSmcoEjd4HEygdxKxZpIYXtWa0kpnKBI3eBxMoHcSsWaSGF7VmtJKZygSN3gcTKB3ErFmkhhe1ZrSSmcoEjd4HEygdxKxZpIYUVK3dU4igXcpI7ZB+4lYycLAclQvnErlgO2QduJSMny0GJUC5jk9wh+8CtZORkOSgRyid2xXLIPnArGTlZDkqEchmb5A7ZB24lIyfLQYlQPrErlkP2gVvJyMlyUCKUy9gkd8g+cCsZOVkOSoTyiV2xHLIP3EpGTpaDEqFcxia5Q/aBW8nIyXJQIpQPdv3zhI4pJHMmbr1B6xlNYueWJzsJlLPuNoXUiCgVoHjMmZb95X/Ewoq/mAqadJopPk9UUu7c8RpSI6JUYOIxZ3ox5l/7CY0a502bXecIcZX3NfND0uEgE3DFnR/iz+tXbXOEuMprDdjAOZf//GLZ7w5S4a7lf5+CK/4wZ9o3dP3s6Us7M4yV8d+O9DnOP9tRdWaiEETf4klJyHg5AEb3EboAk7pkdeIoBLFTK9lCLvvud/khPCQHBaMnOnEUgujBk5KQsqs8oAIEoyc6cRSC6MGTkpCyqzygAgSjJzpxFILowZOSkLKrPKACBKMnOnEUgujBk5KQsqs8oAIEoyc6cRSC6MGTkpCyqzygAgSjJzpxFIIw8ObRz8U9qONtWtEb3ZZSl1G4xN18C26LVtYhxEuNt+wPd4GJEztW+tIoXJb/fR/QuakV3FvpM7I73oq/f5n4w+MRx6GlMkBBBmGYWtKYGa8KpC7yE4WBUkj0hvq6tbTstx0UHHby7r16rbh7QxZckEH0w4LS8v/yf/u88ncefzs7Ko/gPkTHqHbpyZisM6KtPKlcWZVOTaJcejJGWC2BiTYqiwGsrEoHIAiXnowJcH9XBtvqTSpXVqVTkyiXnowRdvV/9JaVJ86rrEqnJ0W59GSMsMv/o7esPHFeZVU6FqrKTPeS0kF0QQQZRF+lTcuB2Yqqo9zZfanWXPb9ILx4KMggqsNA7/EJk0y5V+1LzpNk2edfyCweCjKI6jDQe3zCJFPuVfuS8yRZ/of/9Vu/cE14LIgQjUSP0ILSUJ0QhXYwoseF1NUBcxxjQBM5Un3NZX98s6fX2ObU5X88p8ETCJruRc8YZxFUQYxhF+UeseLvdxl/saMqK4QNRLo9qRghEf1IiTsOfZQdXq9RBUSvLK0mVdFG91VCPLJV9rxeowoIoZyXVpOqaKP7KiEe2Sp7Xq9RBYRQzkurSVW00X2VEI9slT2v16gCQijnpdWkKtrovkqIR7bKntdrVAEhlPPSalIVbXRfJcQjW2XP6zWqgBDKeWk1qYo2uq8S4pGtsuf1GlVACOW8tJpURRvdVwnxyFbZ83qNKiCEcl5aTaqije6rhHhkq+x5vUYVEEI5L602iofpusuksK9XVRvd6UTByrxdoR4/q4hEGRgdL4RBLPt+l1/+L/fkEktOlmuRWdBZecXfl3r++TIVa0YSXTCQXRla5cDeLEJlukWVIJqaUk6LPbWBVMayb1O6uiS8t/wfy134J4gVf+aK4o+Im4HYQCrji59/m0e/vjltHapM609hGOllXply7UqcKOWOrFeXVHnQQQhfGEZ6mVemZd/9UG8u8phyITJPH8p/gQ1C6MIw0su8Mqn+sp9+EqXcPVWvLqnyoIMQvjCM9DKvTF9G/9tCFd0OwjtcTx5DFETDKBv507KYLe+zGteuVc+EKKlmEjLc8gCcVBaoNyzuRveyj6j3sN/1kYYhAMv/5oGpP8RseZ+VIJcPAVj+N2fkjqpMyuamzt9ycZWJTllSkik3yUZcGMt+BKV8xlweUl5lolOWlGTKTbIRF8by//J//zrUQkcRolzxVPOUJVXlpE2yERfGKfGXC1XVXOobeywHdivYcgKcBED931BOkVGjkrEc8K1gywlwEgAt+3GSk34RNTpxLAsXy2gwJpyUBbX8v+IPP6UY//3mGh/l+dVWuX6hsgDCjUU1dlY5iWtUeiwPEa2i5bzQJj/eAgEjEpvAhf1LwmV/epev/tJguS8Hj6poOS/L/yv+Lub884VKAR0zYFxECqCQBX4+UrqUFy09q5QKWeDnI6VLedHSs0qpkAV+PlK6lBctPauUClng5yOlS3nR0rNKqZAFfj5SupQXLT2rlApZ4OcjpUt50dKzSqmQBX4+UrqUFy09q5QKWeDnI6VLedHSs0qpkAV+PlK6lBctPQu3l/nnCT3M6k9YyS/CIIOInVNyxoWwtDCV9sxauUqMX4RBBrHsw1/cJadHerq60+mKbNIJyyTGL8Iggwi7yVn2qy+W/0cPbL2DheoJ1ipsB9vz3haSQVVlopWPprJcEZUWAt9kLPvL/yv+bELMZ8j+jWaG18zyvCIqLdQFmX+5o2qdsKx2qPLZuSpTZ8+eR20Q/Ufr1U6g0l6wgji70YKM2iCWfZ8A7p7mGcvCS8v/ivdwSRAlqs5ORm0QK/7OHn87j36T5WhwbD3ndufHEGRlY5UvpWM8CzZ4PbFBgFEHdtnHIHe7kOIxkZYv/2/fL8lBfczV0gYBxoq/XFi+6PkXC9UmnGtL6gg2eoPvMBpm5VHJexrsIHDfGsJp2c+VqPOtFzb+6jDyq/Llf/OA3KFcuyUIN/5c8fdCxV/7xx26KC/DhwHEgPk/kMDBzBW1rzGRDeChaNWNNxFU1rK//L/iz7fOdV581eZf7Ki846MrarnSzU0TlpYsF+Fa98vy7u7dalRYy5Ve9s0DE5cs/7tT4rrib7u7uIDzzxaqumvxQOc0qAcgMew2P5qk7bDqbKm0Qf1CNtE6VCkik5Rd27JvzoJblv8tTCyk7GLxRt6KP/PMV2r++Y5qCAb7crxGhPvlxGs3vbrCttpGvOxj9pkTPPg2Dtr6cOR0VbrCiNzcCpyx7MNR7Q8On+K/rUcHn55SfyMmY/n/RP//fzGsh2rbThgkAAAAAElFTkSuQmCC;" parent="1" vertex="1">
          <mxGeometry x="347.99" y="259.5" width="101.21" height="67.25" as="geometry" />
        </mxCell>
      </root>
    </mxGraphModel>
  </diagram>
</mxfile>
